<svg xmlns="http://www.w3.org/2000/svg" width="24" height="24" viewBox="0 0 24 24" fill="none">
	<path fill-rule="evenodd" clip-rule="evenodd" d="M5.35558 5.95953L4.9624 6.31905L11.5882 12.3595L18.2139 18.4L18.6165 18.0318L19.0191 17.6637L12.4029 11.6318C8.764 8.3143 5.77816 5.59998 5.76771 5.59998C5.75726 5.59998 5.57182 5.76176 5.35558 5.95953ZM11.1935 6.67129C10.5705 6.73388 9.63933 6.92791 9.25909 7.07435L9.13919 7.12054L10.1065 8.0015L11.0739 8.88245L11.2711 8.84322C11.8673 8.72462 12.6104 8.77535 13.2194 8.97626C14.0788 9.25975 14.8692 9.94381 15.2296 10.716C15.4903 11.2745 15.5779 11.9385 15.467 12.5163L15.4064 12.8324L16.6999 14.0135L17.9933 15.1946L18.5065 14.7167C19.2512 14.0233 19.923 13.243 20.5468 12.3469L20.8002 11.983L20.6071 11.7073C19.3876 9.96606 18.0843 8.7047 16.6782 7.90461C15.6549 7.32232 14.5364 6.92895 13.3929 6.74909C12.791 6.65444 11.7335 6.61702 11.1935 6.67129ZM5.56214 9.28515C4.83392 9.96947 4.15214 10.7339 3.44323 11.6608L3.2002 11.9787L3.35305 12.2064C4.16995 13.4231 5.31793 14.68 6.28758 15.4194C6.9948 15.9586 8.11444 16.5455 9.00718 16.845C9.47405 17.0016 10.2205 17.1748 10.7536 17.2503C11.2709 17.3235 12.5818 17.3342 13.0813 17.2694C13.6809 17.1916 14.8592 16.9236 14.8592 16.865C14.8592 16.854 14.4244 16.4488 13.893 15.9646L12.9268 15.0842L12.7108 15.1285C12.3974 15.1928 11.5321 15.184 11.2172 15.1133C10.1269 14.8686 9.19432 14.1584 8.77034 13.25C8.50788 12.6878 8.42137 12.0318 8.53292 11.4497L8.59351 11.1336L7.33688 9.98759C6.64575 9.3573 6.06991 8.84162 6.05723 8.84162C6.04454 8.84162 5.82178 9.04119 5.56214 9.28515ZM13.2265 10.8455C13.8303 11.3962 14.3298 11.8418 14.3365 11.8357C14.3432 11.8296 14.3223 11.7061 14.2902 11.5613C14.1049 10.7264 13.3647 10.0514 12.4618 9.89391C12.3051 9.86658 12.166 9.84418 12.1527 9.84418C12.1395 9.84418 12.6228 10.2948 13.2265 10.8455ZM9.65392 12.1266C9.65392 12.1411 9.67962 12.2688 9.71107 12.4105C9.89498 13.2397 10.624 13.9025 11.5374 14.0709C11.6963 14.1002 11.8317 14.1192 11.8384 14.1132C11.845 14.1071 11.3563 13.6517 10.7522 13.1012C10.1482 12.5508 9.65392 12.1122 9.65392 12.1266Z" fill="#7D7D7D"/>
</svg>
