<svg xmlns="http://www.w3.org/2000/svg" width="24" height="24" viewBox="0 0 24 24" fill="none">
	<path fill-rule="evenodd" clip-rule="evenodd" d="M11.3529 6.41432C9.17275 6.57033 7.4055 7.33933 5.91803 8.77918C5.26144 9.41477 4.77684 10.0419 4.31484 10.8538C4.10053 11.2304 4 11.4691 4 11.6012C4 11.8878 4.61075 12.928 5.21812 13.6757C5.55991 14.0965 6.27787 14.7905 6.68094 15.0898C7.74437 15.8793 8.86553 16.3783 10.1481 16.633C11.2686 16.8555 12.7228 16.8557 13.8544 16.6337C16.3369 16.1464 18.3774 14.6469 19.6852 12.3486C19.8995 11.972 20 11.7333 20 11.6012C20 11.4691 19.8995 11.2304 19.6852 10.8538C18.9434 9.55029 18.0043 8.53998 16.8101 7.76094C15.7141 7.04597 14.5038 6.61649 13.1519 6.4628C12.6495 6.40569 11.7953 6.38265 11.3529 6.41432ZM12.7036 8.28667C13.4189 8.43805 14.0106 8.76652 14.5267 9.29875C14.9378 9.72271 15.1992 10.1911 15.3677 10.8058C15.4386 11.0641 15.4478 11.156 15.4472 11.6012C15.4466 12.042 15.4366 12.1408 15.3671 12.3966C15.1857 13.0636 14.9255 13.5088 14.4397 13.983C13.9544 14.4567 13.5003 14.7099 12.8148 14.8888C12.5512 14.9576 12.4544 14.9669 12 14.9669C11.5456 14.9669 11.4488 14.9576 11.1852 14.8888C10.4888 14.7071 10.0439 14.457 9.54688 13.9678C9.29669 13.7215 9.15853 13.5555 9.03925 13.3575C8.36416 12.237 8.36416 10.9661 9.03925 9.84465C9.26784 9.46496 9.81175 8.93398 10.2007 8.71082C10.615 8.4731 11.057 8.31739 11.5182 8.24662C11.7713 8.20778 12.437 8.23027 12.7036 8.28667ZM11.5781 9.29677C10.3327 9.51947 9.45634 10.6762 9.62059 11.8805C9.82553 13.3833 11.3727 14.3125 12.8145 13.7988C14.0602 13.355 14.7032 12.0154 14.2511 10.806C13.85 9.73302 12.7168 9.09313 11.5781 9.29677Z" fill="#333333"/>
</svg>
